<?xml version="1.0" encoding="utf-8"?>
<!-- Generator: Adobe Illustrator 27.1.1, SVG Export Plug-In . SVG Version: 6.00 Build 0)  -->
<svg version="1.1" id="Layer_1" xmlns="http://www.w3.org/2000/svg" xmlns:xlink="http://www.w3.org/1999/xlink" x="0px" y="0px"
	 viewBox="0 0 1001.6 767.7" style="enable-background:new 0 0 1001.6 767.7;" xml:space="preserve">
<style type="text/css">
	.st0{fill:#0076BE;}
	.st1{fill:#1AB78A;}
</style>
<g>
	<path class="st0" d="M887.8,238.4H113.9c-11.2,0-20.3-9.1-20.3-20.3V99.2c0-11.2,9.1-20.3,20.3-20.3h773.9
		c11.2,0,20.3,9.1,20.3,20.3v118.9C908.1,229.3,899,238.4,887.8,238.4z"/>
	<path class="st1" d="M887.8,463.6H113.9c-11.2,0-20.3-9.1-20.3-20.3V324.4c0-11.2,9.1-20.3,20.3-20.3h773.9
		c11.2,0,20.3,9.1,20.3,20.3v118.9C908.1,454.5,899,463.6,887.8,463.6z"/>
	<path class="st0" d="M887.8,688.9H113.9c-11.2,0-20.3-9.1-20.3-20.3V549.7c0-11.2,9.1-20.3,20.3-20.3h773.9
		c11.2,0,20.3,9.1,20.3,20.3v118.9C908.1,679.8,899,688.9,887.8,688.9z"/>
</g>
</svg>
