<?xml version="1.0" encoding="utf-8"?>
<!-- Generator: Adobe Illustrator 27.3.1, SVG Export Plug-In . SVG Version: 6.00 Build 0)  -->
<svg version="1.1" xmlns="http://www.w3.org/2000/svg" xmlns:xlink="http://www.w3.org/1999/xlink" x="0px" y="0px"
	 viewBox="0 0 1440 1440" style="enable-background:new 0 0 1440 1440;" xml:space="preserve">
<style type="text/css">
	.st0{display:none;}
	.st1{display:inline;}
	.st2{clip-path:url(#SVGID_00000158731805751276079690000016814365607164184217_);}
	.st3{fill:#E18826;}
	.st4{fill:#20467C;}
	.st5{fill:#FFFFFF;}
	.st6{fill:#9B9EA1;}
	.st7{fill:#ED2024;}
</style>
<g id="Layer_1" class="st0">
	<g class="st1">
		<defs>
			<rect id="SVGID_1_" x="118.4" y="161.5" width="1204.2" height="1116.9"/>
		</defs>
		<clipPath id="SVGID_00000087413345519005428080000014597517598754099883_">
			<use xlink:href="#SVGID_1_"  style="overflow:visible;"/>
		</clipPath>
		<g id="Group_5" style="clip-path:url(#SVGID_00000087413345519005428080000014597517598754099883_);">
			<path id="Path_3" class="st3" d="M1223.6,1194.5c0,46.4-37.6,84-84,84c-46.4,0-84-37.6-84-84c0-46.4,37.6-84,84-84
				C1186,1110.6,1223.6,1148.1,1223.6,1194.5C1223.6,1194.5,1223.6,1194.5,1223.6,1194.5"/>
			<path id="Path_4" class="st3" d="M699.3,1194.5c0,46.4-37.6,84-84,84c-46.4,0-84-37.6-84-84c0-46.4,37.6-84,84-84
				C661.7,1110.6,699.3,1148.1,699.3,1194.5L699.3,1194.5"/>
			<path id="Path_5" class="st4" d="M639.3,627.3c0,0.2,0,0.4,0,0.6c-4.2,49-47.3,85.4-96.3,81.3c-43.3-3.7-77.6-38-81.3-81.3
				c0-0.2,0-0.4,0-0.6h-1.8l-0.1,5.8l-6.3-5.8h-63c0,257.4,208.7,466.1,466.1,466.1s466.1-208.7,466.1-466.1H639.3z"/>
			<path id="Path_6" class="st4" d="M541.9,530.1c-39.7,3.7-72.2,33-80.1,72h1.3c0.1-0.5,0.2-1,0.3-1.4
				c10.7-48.1,58.4-78.3,106.4-67.6c33.7,7.5,60.1,33.9,67.6,67.6c0.1,0.5,0.2,1,0.3,1.4h201.8V161.5
				c-170.6,6.2-324.2,105.2-400.3,258l117.5,109.2L541.9,530.1z"/>
			<path id="Path_7" class="st4" d="M391.1,602.1h35.2l-32.6-30.3C392.6,581.8,391.7,591.9,391.1,602.1"/>
			<path id="Path_8" class="st5" d="M245.3,257.5c8.7,37.6-14.7,75.1-52.3,83.9c-8.7,2-17.7,2.4-26.6,1l281.5,261.6
				c0.2-1,0.3-2,0.5-3c7.6-40.4,38.3-72.5,78.3-81.8L245.3,257.5z"/>
			<path id="Path_9" class="st6" d="M459.8,627.3h-6.4l6.3,5.8L459.8,627.3z"/>
			<path id="Path_10" class="st4" d="M474.4,549.4c-13.3,14.3-22.3,32.2-25.9,51.4c-0.2,1-0.4,2-0.5,3L166.4,342.3
				c38.1,5.9,73.9-20.1,79.8-58.3c1.4-8.8,1-17.9-1-26.6l281.5,261.6C506.6,523.8,488.4,534.3,474.4,549.4"/>
			<path id="Path_11" class="st3" d="M498.8,675.7c30.7,28.5,78.7,26.7,107.2-3.9c11.5-12.4,18.6-28.3,20-45.1
				c0.7-7.7,0.1-15.5-1.5-23.1c-7.7-34.6-38.4-59.2-73.8-59.2c-1.6,0-3.2,0-4.8,0.1c-33.7,2-62,26.1-69.3,59.1
				c-1.3,5.7-1.9,11.6-1.8,17.5c0,1.7,0.1,3.5,0.3,5.6C476.5,645.4,485,662.9,498.8,675.7"/>
			<path id="Path_12" class="st3" d="M137.1,316.3c23.8,22.1,61,20.7,83.1-3c22.1-23.8,20.7-61-3-83.1s-61-20.7-83.1,3c0,0,0,0,0,0
				c-22.1,23.5-21,60.6,2.6,82.7C136.8,316,137,316.1,137.1,316.3"/>
		</g>
	</g>
</g>
<g id="Layer_2" class="st0">
	<g id="a4UNTQ_00000044163666331490270260000006979249810292915091_" class="st1">
		
			<image style="overflow:visible;" width="1588" height="1500" id="a4UNTQ_00000043426732323278103230000008420861751725553577_" xlink:href="E53C931208B97EB2.jpg"  transform="matrix(1 0 0 1 -74 -30)">
		</image>
	</g>
</g>
<g id="Layer_3">
	<path class="st7" d="M565.5,316.2c44.1-42.1,97.3-66.6,154.6-66.6c57.3,0,110.5,24.6,154.6,66.6c25.3-75.3,38.2-131.4,43.9-159.6
		l0.5-2.7C868.9,80.3,798.3,34.5,720.1,34.5c-78.2,0-148.8,45.8-199.1,119.3l0.5,2.7C527.3,184.8,540.2,240.9,565.5,316.2z"/>
	<path class="st7" d="M734.4,1055.2C864,1220.9,994.6,1339,1025,1365.8l201.1-172.9c-140.3-95.8-264.5-211.3-370.7-344.3
		c-36.9,63.6-80.7,128.4-130.9,193.9C727.8,1046.8,731.1,1051,734.4,1055.2z"/>
	<path class="st7" d="M568.3,330.7c-2.9-8.2-5.7-16.3-8.3-24.1c-22.6-67-35.7-119.2-42.5-150.7l-70.5,220.4
		c-0.8,40.8,2.7,82.9,10.4,126.3c13.1,74.4,38.6,152.4,76.2,233.1c15.4,33,32.8,66.6,52.2,100.4c23.4-29.6,45.8-60.1,67.4-91.5
		c22.1-32.1,43.1-64.9,63-98.3C656.7,546.2,607.2,440.5,568.3,330.7z"/>
	<path class="st7" d="M1233.9,1189.7c-142-96.4-267.6-213-374.7-347.6c-0.6,1.1-1.2,2.2-1.9,3.3
		c107.1,134.4,232.7,250.9,374.6,347.2L1025,1370.4c-21.5-18.8-158.8-141.1-293.4-313c-3.1-4-6.2-8-9.3-12c-0.7,1-1.5,1.9-2.2,2.9
		c2.9,3.8,5.8,7.5,8.8,11.3c133.6,170.7,268.2,291.1,293.8,313.5l2.3,2l212.7-182.8L1233.9,1189.7z"/>
	<path class="st7" d="M1226.2,1192.9L1025,1365.8c-30.4-26.8-161-144.9-290.6-310.5c-3.3-4.2-6.6-8.5-9.9-12.7
		c-0.7,1-1.5,1.9-2.2,2.9c3.1,4,6.2,8,9.3,12c134.6,171.9,271.8,294.2,293.4,313l206.9-177.8c-141.9-96.3-267.5-212.8-374.6-347.2
		c-0.6,1.1-1.3,2.2-1.9,3.2C961.6,981.6,1085.9,1097.1,1226.2,1192.9z"/>
	<g>
		<path class="st7" d="M214.1,1192.9l201.1,172.9c30.4-26.8,161-144.9,290.6-310.5c3.3-4.2,6.6-8.5,9.9-12.7
			c-50.2-65.5-94-130.3-130.9-193.9C478.6,981.6,354.3,1097.1,214.1,1192.9z"/>
		<path class="st7" d="M993.3,376.4l-70.5-220.4c-6.8,31.5-19.9,83.7-42.5,150.7c-2.6,7.8-5.4,15.9-8.3,24.1
			c-38.9,109.8-88.4,215.5-147.8,315.7c19.9,33.4,40.9,66.2,63,98.3c21.5,31.3,44,61.8,67.4,91.5c19.4-33.9,36.8-67.4,52.2-100.4
			c37.6-80.7,63-158.7,76.2-233.1C990.6,459.3,994.1,417.1,993.3,376.4z"/>
		<path class="st7" d="M720.1,653.2c-19.4,32.4-39.8,64.3-61.3,95.4c-22.2,32.2-45.3,63.6-69.4,94c36.8,63.6,80.5,128.5,130.7,194.1
			c50.2-65.6,93.9-130.5,130.7-194.1c-24.1-30.4-47.2-61.8-69.4-94C759.9,717.5,739.5,685.7,720.1,653.2z"/>
	</g>
	<path class="st7" d="M784.3,746.7c21.9,31.8,44.7,62.7,68.4,92.7c0.6-1.1,1.3-2.2,1.9-3.3c-23.4-29.6-45.8-60.1-67.4-91.5
		c-22.1-32.1-43.1-64.9-63-98.3c-0.7,1.1-1.3,2.3-2,3.4C741.8,682.7,762.5,715.1,784.3,746.7z"/>
	<path class="st7" d="M584.8,848.6c36.9,63.6,80.7,128.4,130.9,193.9c0.7-1,1.5-1.9,2.2-2.9c-50.2-65.5-93.9-130.4-130.8-194
		C586.3,846.7,585.5,847.6,584.8,848.6z"/>
	<path class="st7" d="M587.1,845.7c36.9,63.6,80.6,128.5,130.8,194c0.7-1,1.5-1.9,2.2-2.9c-50.2-65.5-93.9-130.5-130.7-194.1
		C588.7,843.7,587.9,844.7,587.1,845.7z"/>
	<path class="st7" d="M722.2,649.8c-0.7,1.1-1.4,2.3-2,3.4c19.4,32.4,39.8,64.3,61.3,95.4c22.2,32.2,45.3,63.6,69.4,94
		c0.6-1.1,1.3-2.2,1.9-3.3c-23.7-30-46.5-61-68.4-92.7C762.5,715.1,741.8,682.7,722.2,649.8z"/>
	<path class="st7" d="M724.5,1042.5c50.2-65.5,94-130.3,130.9-193.9c-0.8-1-1.6-1.9-2.3-2.9c-36.9,63.6-80.6,128.5-130.8,194
		C723.1,1040.6,723.8,1041.6,724.5,1042.5z"/>
	<path class="st7" d="M720.1,1042.5c-0.7,1-1.5,1.9-2.2,2.9c0.7,1,1.5,1.9,2.2,2.9c0.7-1,1.5-1.9,2.2-2.9
		C721.6,1044.4,720.8,1043.5,720.1,1042.5z"/>
	<path class="st7" d="M855,842.4c0.8,1,1.6,2,2.3,2.9c0.6-1.1,1.2-2.2,1.9-3.3c-0.8-1-1.6-2-2.3-3
		C856.2,840.2,855.6,841.3,855,842.4z"/>
	<path class="st7" d="M722.3,1039.7c-0.7,1-1.5,1.9-2.2,2.9c0.7,1,1.5,1.9,2.2,2.9c0.7-1,1.5-1.9,2.2-2.9
		C723.8,1041.6,723.1,1040.6,722.3,1039.7z"/>
	<path class="st7" d="M853.1,845.7c0.8,1,1.6,1.9,2.3,2.9c0.6-1.1,1.3-2.2,1.9-3.2c-0.8-1-1.6-2-2.3-2.9
		C854.4,843.5,853.7,844.6,853.1,845.7z"/>
	<path class="st7" d="M922.1,142.3c0,0.2-0.1,0.4-0.1,0.7c0.2,0.3,0.4,0.7,0.7,1L922.1,142.3z"/>
</g>
</svg>
