<?xml version="1.0" encoding="utf-8"?>
<!-- Generator: Adobe Illustrator 27.3.1, SVG Export Plug-In . SVG Version: 6.00 Build 0)  -->
<svg version="1.1" id="Layer_1" xmlns="http://www.w3.org/2000/svg" xmlns:xlink="http://www.w3.org/1999/xlink" x="0px" y="0px"
	 viewBox="0 0 1440 1440" style="enable-background:new 0 0 1440 1440;" xml:space="preserve">
<style type="text/css">
	.st0{clip-path:url(#SVGID_00000141432160554228615740000016448434733825606062_);}
	.st1{fill:#E18826;}
	.st2{fill:#20467C;}
	.st3{fill:#FFFFFF;}
	.st4{fill:#9B9EA1;}
</style>
<g>
	<defs>
		<rect id="SVGID_1_" x="118.4" y="161.5" width="1204.2" height="1116.9"/>
	</defs>
	<clipPath id="SVGID_00000073000878662568971310000016346204341681233309_">
		<use xlink:href="#SVGID_1_"  style="overflow:visible;"/>
	</clipPath>
	<g id="Group_5" style="clip-path:url(#SVGID_00000073000878662568971310000016346204341681233309_);">
		<path id="Path_3" class="st1" d="M1223.6,1194.5c0,46.4-37.6,84-84,84c-46.4,0-84-37.6-84-84c0-46.4,37.6-84,84-84
			C1186,1110.6,1223.6,1148.1,1223.6,1194.5C1223.6,1194.5,1223.6,1194.5,1223.6,1194.5"/>
		<path id="Path_4" class="st1" d="M699.3,1194.5c0,46.4-37.6,84-84,84c-46.4,0-84-37.6-84-84c0-46.4,37.6-84,84-84
			C661.7,1110.6,699.3,1148.1,699.3,1194.5L699.3,1194.5"/>
		<path id="Path_5" class="st2" d="M639.3,627.3c0,0.2,0,0.4,0,0.6c-4.2,49-47.3,85.4-96.3,81.3c-43.3-3.7-77.6-38-81.3-81.3
			c0-0.2,0-0.4,0-0.6h-1.8l-0.1,5.8l-6.3-5.8h-63c0,257.4,208.7,466.1,466.1,466.1s466.1-208.7,466.1-466.1H639.3z"/>
		<path id="Path_6" class="st2" d="M541.9,530.1c-39.7,3.7-72.2,33-80.1,72h1.3c0.1-0.5,0.2-1,0.3-1.4
			c10.7-48.1,58.4-78.3,106.4-67.6c33.7,7.5,60.1,33.9,67.6,67.6c0.1,0.5,0.2,1,0.3,1.4h201.8V161.5
			c-170.6,6.2-324.2,105.2-400.3,258l117.5,109.2L541.9,530.1z"/>
		<path id="Path_7" class="st2" d="M391.1,602.1h35.2l-32.6-30.3C392.6,581.8,391.7,591.9,391.1,602.1"/>
		<path id="Path_8" class="st3" d="M245.3,257.5c8.7,37.6-14.7,75.1-52.3,83.9c-8.7,2-17.7,2.4-26.6,1l281.5,261.6
			c0.2-1,0.3-2,0.5-3c7.6-40.4,38.3-72.5,78.3-81.8L245.3,257.5z"/>
		<path id="Path_9" class="st4" d="M459.8,627.3h-6.4l6.3,5.8L459.8,627.3z"/>
		<path id="Path_10" class="st2" d="M474.4,549.4c-13.3,14.3-22.3,32.2-25.9,51.4c-0.2,1-0.4,2-0.5,3L166.4,342.3
			c38.1,5.9,73.9-20.1,79.8-58.3c1.4-8.8,1-17.9-1-26.6l281.5,261.6C506.6,523.8,488.4,534.3,474.4,549.4"/>
		<path id="Path_11" class="st1" d="M498.8,675.7c30.7,28.5,78.7,26.7,107.2-3.9c11.5-12.4,18.6-28.3,20-45.1
			c0.7-7.7,0.1-15.5-1.5-23.1c-7.7-34.6-38.4-59.2-73.8-59.2c-1.6,0-3.2,0-4.8,0.1c-33.7,2-62,26.1-69.3,59.1
			c-1.3,5.7-1.9,11.6-1.8,17.5c0,1.7,0.1,3.5,0.3,5.6C476.5,645.4,485,662.9,498.8,675.7"/>
		<path id="Path_12" class="st1" d="M137.1,316.3c23.8,22.1,61,20.7,83.1-3c22.1-23.8,20.7-61-3-83.1s-61-20.7-83.1,3c0,0,0,0,0,0
			c-22.1,23.5-21,60.6,2.6,82.7C136.8,316,137,316.1,137.1,316.3"/>
	</g>
</g>
</svg>
