<?xml version="1.0" encoding="utf-8"?>
<!-- Generator: Adobe Illustrator 27.3.1, SVG Export Plug-In . SVG Version: 6.00 Build 0)  -->
<svg version="1.1" id="Layer_1" xmlns="http://www.w3.org/2000/svg" xmlns:xlink="http://www.w3.org/1999/xlink" x="0px" y="0px"
	 viewBox="0 0 1440 1440" style="enable-background:new 0 0 1440 1440;" xml:space="preserve">
<style type="text/css">
	.st0{clip-path:url(#SVGID_00000124853026990637668740000013073084805398044601_);}
	.st1{fill:#E18826;}
	.st2{fill:#FFFFFF;}
</style>
<g id="Group_8" transform="translate(0 -0.002)">
	<g>
		<defs>
			<rect id="SVGID_1_" x="425.8" y="86.7" width="589.4" height="1267.1"/>
		</defs>
		<clipPath id="SVGID_00000172406548566513806970000018426607499252846217_">
			<use xlink:href="#SVGID_1_"  style="overflow:visible;"/>
		</clipPath>
		
			<g id="Group_7" transform="translate(0 0.002)" style="clip-path:url(#SVGID_00000172406548566513806970000018426607499252846217_);">
			<path id="Path_13" class="st1" d="M804.3,192.2c0,58.2-34.2,105.5-76.3,105.5c-42.1,0-76.3-47.2-76.3-105.5S685.8,86.7,728,86.7
				C770.1,86.7,804.3,133.9,804.3,192.2"/>
			<path id="Path_14" class="st1" d="M819.6,307.9H636.4c-18.6,0-33.6,15-33.6,33.6v0v450.6c0,18.6,15,33.6,33.6,33.6h183.1
				c18.6,0,33.6-15,33.6-33.6V341.5C853.2,323,838.1,307.9,819.6,307.9L819.6,307.9"/>
			<path id="Path_15" class="st1" d="M827.4,314.1l-15.9,5.4c-17.6,5.9-27.1,25-21.2,42.5c0,0,0,0,0,0l143.5,427.2
				c5.9,17.6,25,27.1,42.5,21.2c0,0,0,0,0,0l15.9-5.4c17.6-5.9,27.1-25,21.2-42.5c0,0,0,0,0,0L869.9,335.3
				C864,317.7,845,308.2,827.4,314.1C827.4,314.1,827.4,314.1,827.4,314.1"/>
			<path id="Path_16" class="st1" d="M653.7,324.7l-15.6-6.2c-17.2-6.8-36.8,1.6-43.6,18.8c0,0,0,0,0,0L428.1,756.1
				c-6.8,17.2,1.6,36.8,18.8,43.6c0,0,0,0,0,0l15.6,6.2c17.2,6.8,36.8-1.6,43.6-18.8c0,0,0,0,0,0l166.3-418.8
				C679.4,351.1,671,331.5,653.7,324.7C653.7,324.7,653.7,324.7,653.7,324.7"/>
			<path id="Path_17" class="st1" d="M668,848.5h-16.8c-18.6,0-33.6,15-33.6,33.6l0,0v450.6c0,18.6,15,33.6,33.6,33.6c0,0,0,0,0,0
				H668c18.6,0,33.6-15,33.6-33.6l0,0V882.1C701.6,863.6,686.6,848.5,668,848.5C668,848.5,668,848.5,668,848.5"/>
			<path id="Path_18" class="st1" d="M794.1,848.5h-16.8c-18.6,0-33.6,15-33.6,33.6l0,0v450.6c0,18.6,15,33.6,33.6,33.6l0,0h16.8
				c18.6,0,33.6-15,33.6-33.6l0,0V882.1C827.7,863.6,812.6,848.5,794.1,848.5L794.1,848.5"/>
			<path id="Path_19" class="st1" d="M900.3,753.1c0,85.6-77.2,155-172.3,155s-172.3-69.4-172.3-155S632.8,598,728,598
				S900.3,667.4,900.3,753.1"/>
			<path id="Path_20" class="st2" d="M887.8,687.5c-13.7-29.8-44.3-48.1-77-46.1c-33.7,0-65.1,17.4-82.8,46.1
				c-17.7-28.7-49.1-46.1-82.8-46.1c-32.7-2-63.3,16.3-77,46.1c0,0-30.8,61.6,33.7,128S728,906,728,906s61.6-24.1,126.1-90.5
				S887.8,687.5,887.8,687.5"/>
		</g>
	</g>
</g>
</svg>
