<?xml version="1.0" encoding="utf-8"?>
<!-- Generator: Adobe Illustrator 27.1.1, SVG Export Plug-In . SVG Version: 6.00 Build 0)  -->
<svg version="1.1" id="Layer_1" xmlns="http://www.w3.org/2000/svg" xmlns:xlink="http://www.w3.org/1999/xlink" x="0px" y="0px"
	 viewBox="0 0 1001.6 767.7" style="enable-background:new 0 0 1001.6 767.7;" xml:space="preserve">
<style type="text/css">
	.st0{fill:#0076BE;}
	.st1{fill:#1AB78A;}
	.st2{fill:#FFFFFF;}
</style>
<g>
	<path class="st0" d="M830.8,166.6L283.6,713.9c-7.9,7.9-20.8,7.9-28.7,0l-84.1-84.1c-7.9-7.9-7.9-20.8,0-28.7L718,53.9
		c7.9-7.9,20.8-7.9,28.7,0l84.1,84.1C838.8,145.9,838.8,158.7,830.8,166.6z"/>
	<g>
		<path class="st1" d="M732.4,727.3c-7.4,0-14.4-2.9-19.7-8.1L165.5,172c-10.8-10.8-10.8-28.5,0-39.3l84.1-84.1
			c5.3-5.3,12.2-8.1,19.7-8.1s14.4,2.9,19.7,8.1l547.2,547.2c10.8,10.8,10.8,28.5,0,39.3L752,719.2
			C746.8,724.4,739.8,727.3,732.4,727.3z"/>
		<path class="st2" d="M269.2,47.9c5.2,0,10.4,2,14.4,5.9l547.2,547.2c7.9,7.9,7.9,20.8,0,28.7l-84.1,84.1c-4,4-9.2,5.9-14.4,5.9
			c-5.2,0-10.4-2-14.4-5.9L170.8,166.6c-7.9-7.9-7.9-20.8,0-28.7l84.1-84.1C258.8,49.9,264,47.9,269.2,47.9 M269.2,32.9
			c-9.4,0-18.3,3.7-25,10.3l-84.1,84.1c-13.8,13.8-13.8,36.2,0,49.9l547.2,547.2c6.7,6.7,15.5,10.3,25,10.3c9.4,0,18.3-3.7,25-10.3
			l84.1-84.1c13.8-13.8,13.8-36.2,0-49.9L294.2,43.2C287.5,36.6,278.7,32.9,269.2,32.9L269.2,32.9z"/>
	</g>
</g>
</svg>
